<svg width="31" height="33" viewBox="0 0 31 33" fill="none" xmlns="http://www.w3.org/2000/svg">
<path d="M19.9998 26.5001L23.9998 30.5001V24.5001C25.5 23.5001 29.4762 19.0001 29 14.0001C28.0953 4.50006 19.8334 1.83339 15 2.00005C9.16669 2.33339 1.44685 6 1.99978 16.5001C2.50003 26.0001 15.3331 27.6668 19.9998 26.5001Z" stroke="#00FFE0" stroke-width="2"/>
<path d="M14.1992 17.2383C14.1992 16.459 14.2959 15.8379 14.4893 15.375C14.6826 14.9121 15.0635 14.4053 15.6318 13.8545C16.2061 13.2979 16.5693 12.9023 16.7217 12.668C16.9561 12.3105 17.0732 11.9238 17.0732 11.5078C17.0732 10.957 16.9355 10.5381 16.6602 10.251C16.3906 9.95801 15.9922 9.81152 15.4648 9.81152C14.9609 9.81152 14.5537 9.95508 14.2432 10.2422C13.9385 10.5234 13.7861 10.9072 13.7861 11.3936H11.6504C11.6621 10.3564 12.0137 9.53613 12.7051 8.93262C13.4023 8.3291 14.3223 8.02734 15.4648 8.02734C16.6426 8.02734 17.5596 8.32617 18.2158 8.92383C18.8779 9.52148 19.209 10.3564 19.209 11.4287C19.209 12.3838 18.7637 13.3242 17.873 14.25L16.792 15.3135C16.4053 15.7529 16.2061 16.3945 16.1943 17.2383H14.1992ZM14.0498 19.9717C14.0498 19.626 14.1582 19.3477 14.375 19.1367C14.5918 18.9199 14.8848 18.8115 15.2539 18.8115C15.6289 18.8115 15.9248 18.9229 16.1416 19.1455C16.3584 19.3623 16.4668 19.6377 16.4668 19.9717C16.4668 20.2939 16.3613 20.5635 16.1504 20.7803C15.9395 20.9971 15.6406 21.1055 15.2539 21.1055C14.8672 21.1055 14.5684 20.9971 14.3574 20.7803C14.1523 20.5635 14.0498 20.2939 14.0498 19.9717Z" fill="#00FFE0"/>
</svg>
